<svg width="33" height="37" viewBox="0 0 33 37" fill="none" xmlns="http://www.w3.org/2000/svg">
<path d="M10.3938 4.29263C9.854 4.29263 9.33629 4.50707 8.95458 4.88878C8.57287 5.27049 8.35842 5.7882 8.35842 6.32802C8.35842 6.86784 8.57287 7.38555 8.95458 7.76726C9.33629 8.14897 9.854 8.36341 10.3938 8.36341C10.9336 8.36341 11.4513 8.14897 11.8331 7.76726C12.2148 7.38555 12.4292 6.86784 12.4292 6.32802C12.4292 5.7882 12.2148 5.27049 11.8331 4.88878C11.4513 4.50707 10.9336 4.29263 10.3938 4.29263ZM4.63366 4.29263C5.05417 3.10084 5.83401 2.06883 6.86567 1.33885C7.89733 0.608866 9.13001 0.216858 10.3938 0.216858C11.6576 0.216858 12.8903 0.608866 13.922 1.33885C14.9536 2.06883 15.7335 3.10084 16.154 4.29263H30.7477C31.2875 4.29263 31.8053 4.50707 32.187 4.88878C32.5687 5.27049 32.7831 5.7882 32.7831 6.32802C32.7831 6.86784 32.5687 7.38555 32.187 7.76726C31.8053 8.14897 31.2875 8.36341 30.7477 8.36341H16.154C15.7335 9.5552 14.9536 10.5872 13.922 11.3172C12.8903 12.0472 11.6576 12.4392 10.3938 12.4392C9.13001 12.4392 7.89733 12.0472 6.86567 11.3172C5.83401 10.5872 5.05417 9.5552 4.63366 8.36341H2.25225C1.71243 8.36341 1.19472 8.14897 0.813011 7.76726C0.431301 7.38555 0.216858 6.86784 0.216858 6.32802C0.216858 5.7882 0.431301 5.27049 0.813011 4.88878C1.19472 4.50707 1.71243 4.29263 2.25225 4.29263H4.63366ZM22.6062 16.505C22.0663 16.505 21.5486 16.7194 21.1669 17.1011C20.7852 17.4828 20.5708 18.0005 20.5708 18.5404C20.5708 19.0802 20.7852 19.5979 21.1669 19.9796C21.5486 20.3613 22.0663 20.5758 22.6062 20.5758C23.146 20.5758 23.6637 20.3613 24.0454 19.9796C24.4271 19.5979 24.6416 19.0802 24.6416 18.5404C24.6416 18.0005 24.4271 17.4828 24.0454 17.1011C23.6637 16.7194 23.146 16.505 22.6062 16.505ZM16.846 16.505C17.2665 15.3132 18.0464 14.2812 19.078 13.5512C20.1097 12.8212 21.3424 12.4292 22.6062 12.4292C23.87 12.4292 25.1027 12.8212 26.1343 13.5512C27.166 14.2812 27.9458 15.3132 28.3663 16.505H30.7477C31.2875 16.505 31.8053 16.7194 32.187 17.1011C32.5687 17.4828 32.7831 18.0005 32.7831 18.5404C32.7831 19.0802 32.5687 19.5979 32.187 19.9796C31.8053 20.3613 31.2875 20.5758 30.7477 20.5758H28.3663C27.9458 21.7675 27.166 22.7996 26.1343 23.5295C25.1027 24.2595 23.87 24.6515 22.6062 24.6515C21.3424 24.6515 20.1097 24.2595 19.078 23.5295C18.0464 22.7996 17.2665 21.7675 16.846 20.5758H2.25225C1.71243 20.5758 1.19472 20.3613 0.813011 19.9796C0.431301 19.5979 0.216858 19.0802 0.216858 18.5404C0.216858 18.0005 0.431301 17.4828 0.813011 17.1011C1.19472 16.7194 1.71243 16.505 2.25225 16.505H16.846ZM10.3938 28.7173C9.854 28.7173 9.33629 28.9318 8.95458 29.3135C8.57287 29.6952 8.35842 30.2129 8.35842 30.7527C8.35842 31.2925 8.57287 31.8102 8.95458 32.192C9.33629 32.5737 9.854 32.7881 10.3938 32.7881C10.9336 32.7881 11.4513 32.5737 11.8331 32.192C12.2148 31.8102 12.4292 31.2925 12.4292 30.7527C12.4292 30.2129 12.2148 29.6952 11.8331 29.3135C11.4513 28.9318 10.9336 28.7173 10.3938 28.7173ZM4.63366 28.7173C5.05417 27.5255 5.83401 26.4935 6.86567 25.7635C7.89733 25.0336 9.13001 24.6416 10.3938 24.6416C11.6576 24.6416 12.8903 25.0336 13.922 25.7635C14.9536 26.4935 15.7335 27.5255 16.154 28.7173H30.7477C31.2875 28.7173 31.8053 28.9318 32.187 29.3135C32.5687 29.6952 32.7831 30.2129 32.7831 30.7527C32.7831 31.2925 32.5687 31.8102 32.187 32.192C31.8053 32.5737 31.2875 32.7881 30.7477 32.7881H16.154C15.7335 33.9799 14.9536 35.0119 13.922 35.7419C12.8903 36.4719 11.6576 36.8639 10.3938 36.8639C9.13001 36.8639 7.89733 36.4719 6.86567 35.7419C5.83401 35.0119 5.05417 33.9799 4.63366 32.7881H2.25225C1.71243 32.7881 1.19472 32.5737 0.813011 32.192C0.431301 31.8102 0.216858 31.2925 0.216858 30.7527C0.216858 30.2129 0.431301 29.6952 0.813011 29.3135C1.19472 28.9318 1.71243 28.7173 2.25225 28.7173H4.63366Z" fill="#3A3A3A"/>
</svg>
